# xmcd CD database file
#
# Track frame offsets:
#	150
#	18463
#	34290
#	39919
#	49359
#	64365
#	73282
#	84734
#	90986
#	106086
#	118390
#	129572
#	141459
#	154373
#	159254
#	167217
#	178879
#	191857
#	205603
#	217374
#	226534
#	238300
#	249002
#	259492
#	269769
#
# Disc length: 3767 seconds
#
# Revision: 0
# Processed by: cddbd v1.5.2PL0 Copyright (c) Steve Scherf et al.
# Submitted via: CDex 1.51
#
DISCID=830eb519
DTITLE=George Jones - Reflections (Disk 2)
DYEAR=2006
DGENRE=Country
TTITLE0=Bartender's Blues
TTITLE1=He Stopped Loving Her Today
TTITLE2=Liberty
TTITLE3=Old Brush Arbors
TTITLE4=On The Banks Of The Ponchertrain
TTITLE5=Please Don't Let That Woman Get Me
TTITLE6=She's My Rock
TTITLE7=Chicken Reel
TTITLE8=I Always Get Lucky With You
TTITLE9=Blue Side Of Lonesome
TTITLE10=Tarnished Angel
TTITLE11=They'll Never Take Her Love
TTITLE12=Things Have Gone To Pieces
TTITLE13=Who's Gonna Chop My Baby's Kindlin'
TTITLE14=Yes, I Know Why
TTITLE15=You Comb Her Hair
TTITLE16=Cold Cold Heart
TTITLE17=Heart's In My Dream
TTITLE18=I Can't Change Overnight
TTITLE19=Jonesy
TTITLE20=Least Of All
TTITLE21=Let A Little Lovin' Come In
TTITLE22=The One I Loved Back Then
TTITLE23=The Race Is On
TTITLE24=Wedding Bells
EXTD=YEAR: 2006
EXTT0=
EXTT1=
EXTT2=
EXTT3=
EXTT4=
EXTT5=
EXTT6=
EXTT7=
EXTT8=
EXTT9=
EXTT10=
EXTT11=
EXTT12=
EXTT13=
EXTT14=
EXTT15=
EXTT16=
EXTT17=
EXTT18=
EXTT19=
EXTT20=
EXTT21=
EXTT22=
EXTT23=
EXTT24=
PLAYORDER=
